<svg xmlns="http://www.w3.org/2000/svg" version="1.1" xmlns:xlink="http://www.w3.org/1999/xlink" xmlns:svgjs="http://svgjs.dev/svgjs" width="1440" height="560" preserveAspectRatio="none" viewBox="0 0 1440 560"><g mask="url(&quot;#SvgjsMask1001&quot;)" fill="none"><rect width="1440" height="560" x="0" y="0" fill="rgba(22, 196, 127, 1)"></rect><path d="M0,301.193C62.293,298.026,129.269,316.483,182.521,284.008C236.092,251.338,248.007,181.448,282.407,128.971C324.404,64.906,406.257,18.072,407.064,-58.527C407.87,-134.995,348.753,-203.905,286.381,-248.151C229.282,-288.657,151.094,-266.161,84.396,-287.428C15.356,-309.442,-37.54,-376.727,-109.972,-374.53C-188.25,-372.155,-267.707,-335.567,-317.634,-275.232C-367.231,-215.297,-373.674,-131.732,-375.25,-53.953C-376.689,17.062,-358.253,85.582,-326.228,148.983C-295.153,210.504,-257.309,274.05,-194.849,303.192C-134.771,331.223,-66.211,304.559,0,301.193" fill="#129d66"></path><path d="M1440 1047.563C1534.431 1069.298 1637.387 1046.325 1720.068 995.794 1803.6100000000001 944.7370000000001 1868.749 862.384 1896.589 768.517 1922.859 679.944 1877.801 590.344 1867.551 498.527 1856.878 402.924 1892.775 294.635 1835.093 217.64999999999998 1777.029 140.15499999999997 1669.103 120.26499999999999 1573.346 105.86599999999999 1486.215 92.76400000000001 1400.029 111.39100000000002 1316.583 139.68099999999998 1236.004 166.99900000000002 1166.156 211.606 1100.792 266.074 1024.335 329.786 933.1800000000001 387.695 904.566 483.016 874.65 582.677 878.777 705.672 944.655 786.216 1010.021 866.135 1140.795 835.303 1232.1109999999999 883.482 1311.804 925.529 1352.191 1027.3519999999999 1440 1047.563" fill="#20e697"></path></g><defs><mask id="SvgjsMask1001"><rect width="1440" height="560" fill="#ffffff"></rect></mask></defs></svg>